<?xml version="1.0" encoding="utf-8"?><svg version="1.1" id="Layer_1" xmlns="http://www.w3.org/2000/svg" xmlns:xlink="http://www.w3.org/1999/xlink" x="0px" y="0px" viewBox="0 0 122.88 118.29" style="enable-background:new 0 0 122.88 118.29" xml:space="preserve"><g><path fill="#FFFFFF" d="M12.53,19.37v86.39h108.46v12.53H6.27c-3.46,0-6.27-2.81-6.27-6.27V19.37H12.53L12.53,19.37z M40.66,17.77l-1.04,8.14 c-0.32,2.51-2.61,4.28-5.12,3.97c-2.51-0.32-4.28-2.61-3.97-5.12l2.65-20.62c0.14-1.45,0.97-2.81,2.33-3.57 c1.24-0.69,2.65-0.74,3.88-0.27l19.86,7.65c2.36,0.91,3.53,3.56,2.62,5.92c-0.91,2.36-3.56,3.53-5.92,2.62l-6.78-2.61 c7.43,10.08,16.33,18.5,25.94,25.06c13.84,9.45,29.1,15,43.51,16.04c2.53,0.18,4.43,2.37,4.25,4.9c-0.18,2.53-2.37,4.43-4.9,4.25 C101.98,63,85.12,56.9,69.94,46.53C59.02,39.08,48.95,29.4,40.66,17.77L40.66,17.77z M115.5,85.66V96.9h-14.21V85.66H115.5 L115.5,85.66z M90.1,73.83V96.9H75.9V73.83H90.1L90.1,73.83z M64.71,65.69V96.9H50.51V65.69H64.71L64.71,65.69z M39.32,53.29V96.9 H25.11V53.29H39.32L39.32,53.29z"/></g></svg>